<?xml version="1.0" encoding="UTF-8"?>
<!DOCTYPE svg PUBLIC "-//W3C//DTD SVG 1.1//EN" "http://www.w3.org/Graphics/SVG/1.1/DTD/svg11.dtd">
<svg xmlns="http://www.w3.org/2000/svg" version="1.1" width="256px" height="256px" style="shape-rendering:geometricPrecision; text-rendering:geometricPrecision; image-rendering:optimizeQuality; fill-rule:evenodd; clip-rule:evenodd" xmlns:xlink="http://www.w3.org/1999/xlink">
<g><path style="opacity:1" fill="#eb1121" d="M 114.5,15.5 C 153.445,11.8828 181.945,27.2161 200,61.5C 214.352,101.088 205.186,133.921 172.5,160C 142.5,178 112.5,178 82.5,160C 49.8125,133.916 40.6458,101.083 55,61.5C 67.4591,36.5313 87.2924,21.198 114.5,15.5 Z M 125.5,58.5 C 127.144,58.2865 128.644,58.6198 130,59.5C 133.039,65.7449 136.206,71.9116 139.5,78C 146.475,79.4253 153.475,80.7587 160.5,82C 162.855,83.8646 163.022,86.0312 161,88.5C 156.366,92.1321 152.033,96.1321 148,100.5C 148.171,107.539 149.005,114.539 150.5,121.5C 150.202,125.226 148.202,126.393 144.5,125C 139.107,121.637 133.44,118.804 127.5,116.5C 121.56,118.804 115.893,121.637 110.5,125C 108.559,125.743 106.726,125.576 105,124.5C 105.667,116.5 106.333,108.5 107,100.5C 101.525,95.536 96.6917,90.2026 92.5,84.5C 92.8178,83.3527 93.4844,82.5194 94.5,82C 101.525,80.7587 108.525,79.4253 115.5,78C 118.974,71.5515 122.307,65.0515 125.5,58.5 Z"/></g>
<g><path style="opacity:0.999" fill="#eb1121" d="M 80.5,171.5 C 111.501,188.796 142.501,188.796 173.5,171.5C 174.666,193.826 174.833,216.159 174,238.5C 171.599,239.602 169.099,239.769 166.5,239C 153.842,230.002 140.842,221.502 127.5,213.5C 114.158,221.502 101.158,230.002 88.5,239C 86.1667,239.667 83.8333,239.667 81.5,239C 80.5061,216.575 80.1728,194.075 80.5,171.5 Z"/></g>
</svg>
