<?xml version="1.0" encoding="UTF-8"?>
<!DOCTYPE svg PUBLIC "-//W3C//DTD SVG 1.1//EN" "http://www.w3.org/Graphics/SVG/1.1/DTD/svg11.dtd">
<svg xmlns="http://www.w3.org/2000/svg" version="1.1" width="256px" height="256px" style="shape-rendering:geometricPrecision; text-rendering:geometricPrecision; image-rendering:optimizeQuality; fill-rule:evenodd; clip-rule:evenodd" xmlns:xlink="http://www.w3.org/1999/xlink">
<g><path style="opacity:0.999" fill="#eb1121" d="M 123.5,7.5 C 127.257,7.07083 130.757,7.73749 134,9.5C 135.429,16.7194 135.929,24.0528 135.5,31.5C 176.335,36.5054 204.168,58.1721 219,96.5C 221.336,104.012 222.836,111.678 223.5,119.5C 230.175,119.334 236.842,119.5 243.5,120C 246.516,121.529 247.849,124.029 247.5,127.5C 247.849,130.971 246.516,133.471 243.5,135C 236.842,135.5 230.175,135.666 223.5,135.5C 218.495,176.335 196.828,204.168 158.5,219C 150.991,221.335 143.324,222.835 135.5,223.5C 135.666,230.175 135.5,236.842 135,243.5C 133.471,246.516 130.971,247.849 127.5,247.5C 124.029,247.849 121.529,246.516 120,243.5C 119.5,236.842 119.334,230.175 119.5,223.5C 78.6631,218.492 50.8298,196.826 36,158.5C 33.6643,150.988 32.1643,143.322 31.5,135.5C 24.825,135.666 18.1583,135.5 11.5,135C 8.48396,133.471 7.15062,130.971 7.5,127.5C 7.15062,124.029 8.48396,121.529 11.5,120C 18.1583,119.5 24.825,119.334 31.5,119.5C 36.5054,78.665 58.1721,50.8317 96.5,36C 104.012,33.6643 111.678,32.1643 119.5,31.5C 119.334,24.825 119.5,18.1583 120,11.5C 120.69,9.64977 121.856,8.31643 123.5,7.5 Z M 115.5,48.5 C 116.833,48.5 118.167,48.5 119.5,48.5C 116.88,61.7268 121.713,66.0602 134,61.5C 135.367,57.3004 135.867,52.9671 135.5,48.5C 176.176,55.1758 199.842,78.8424 206.5,119.5C 193.273,116.88 188.94,121.713 193.5,134C 197.7,135.367 202.033,135.867 206.5,135.5C 199.833,176.167 176.167,199.833 135.5,206.5C 138.12,193.273 133.287,188.94 121,193.5C 119.633,197.7 119.133,202.033 119.5,206.5C 78.8424,199.842 55.1758,176.176 48.5,135.5C 61.7268,138.12 66.0602,133.287 61.5,121C 57.3004,119.633 52.9671,119.133 48.5,119.5C 54.7782,80.5657 77.1115,56.8991 115.5,48.5 Z"/></g>
<g><path style="opacity:0.999" fill="#eb1121" d="M 121.5,111.5 C 140.778,110.61 147.278,119.276 141,137.5C 134.055,144.069 126.222,145.236 117.5,141C 110.931,134.055 109.764,126.222 114,117.5C 116.114,114.879 118.614,112.879 121.5,111.5 Z"/></g>
</svg>
