<?xml version="1.0" standalone="no"?>
<!DOCTYPE svg PUBLIC "-//W3C//DTD SVG 20010904//EN"
 "http://www.w3.org/TR/2001/REC-SVG-20010904/DTD/svg10.dtd">
<svg version="1.0" xmlns="http://www.w3.org/2000/svg"
 width="394.000000pt" height="74.000000pt" viewBox="0 0 394.000000 74.000000"
 preserveAspectRatio="xMidYMid meet">

<g transform="translate(0.000000,74.000000) scale(0.100000,-0.100000)"
fill="#000000" stroke="none">
<path d="M953 730 c-134 -28 -224 -127 -253 -278 -53 -267 145 -491 393 -442
179 35 272 158 272 360 0 113 -18 172 -73 245 -69 92 -215 141 -339 115z m188
-97 c38 -20 63 -42 86 -75 63 -95 67 -263 8 -363 -99 -170 -352 -149 -429 36
-34 82 -28 227 14 308 56 111 203 153 321 94z"/>
<path d="M3559 727 c-108 -31 -159 -90 -159 -186 0 -107 53 -151 244 -200 139
-36 180 -58 196 -106 10 -30 9 -41 -7 -72 -28 -57 -72 -78 -168 -78 -120 0
-187 45 -209 137 -6 25 -9 26 -44 21 -20 -3 -39 -8 -41 -10 -3 -2 1 -25 8 -51
26 -98 98 -154 223 -173 179 -28 327 64 328 204 0 29 -8 64 -20 87 -34 67 -81
89 -305 146 -117 30 -157 94 -99 163 28 33 76 51 139 51 89 0 159 -43 171
-107 6 -32 7 -33 48 -27 22 4 43 8 45 10 11 10 -24 90 -55 124 -58 64 -196 95
-295 67z"/>
<path d="M0 370 l0 -360 45 0 45 0 0 170 0 170 190 0 190 0 0 -170 0 -170 45
0 45 0 0 360 0 360 -45 0 -45 0 0 -150 0 -150 -190 0 -190 0 0 150 0 150 -45
0 -45 0 0 -360z"/>
<path d="M1500 370 l0 -360 220 0 220 0 0 40 0 40 -175 0 -175 0 0 320 0 320
-45 0 -45 0 0 -360z"/>
<path d="M2060 370 l0 -360 265 0 265 0 0 40 0 40 -220 0 -220 0 0 125 0 125
200 0 200 0 0 40 0 40 -200 0 -200 0 0 115 0 115 210 0 210 0 0 40 0 40 -255
0 -255 0 0 -360z"/>
<path d="M2730 370 l0 -360 45 0 45 0 0 128 0 128 58 57 57 57 129 -185 128
-185 60 0 60 0 -24 33 c-13 17 -84 113 -156 213 l-132 181 148 146 147 147
-60 0 -60 0 -177 -177 -178 -178 0 178 0 177 -45 0 -45 0 0 -360z"/>
</g>
</svg>
