<?xml version="1.0" encoding="UTF-8"?>
<!DOCTYPE svg PUBLIC "-//W3C//DTD SVG 1.1//EN" "http://www.w3.org/Graphics/SVG/1.1/DTD/svg11.dtd">
<svg xmlns="http://www.w3.org/2000/svg" version="1.1" width="256px" height="256px" style="shape-rendering:geometricPrecision; text-rendering:geometricPrecision; image-rendering:optimizeQuality; fill-rule:evenodd; clip-rule:evenodd" xmlns:xlink="http://www.w3.org/1999/xlink">
<g><path style="opacity:0.999" fill="#eb1121" d="M 51.5,-0.5 C 52.1667,-0.5 52.8333,-0.5 53.5,-0.5C 70.5,84.8333 87.5,170.167 104.5,255.5C 104.167,255.5 103.833,255.5 103.5,255.5C 75.7927,208.59 48.4594,161.424 21.5,114C 29.702,105.301 37.702,96.4672 45.5,87.5C 35.3383,78.5047 25.3383,69.3381 15.5,60C 27.7376,39.9396 39.7376,19.7729 51.5,-0.5 Z"/></g>
<g><path style="opacity:0.999" fill="#eb1121" d="M 201.5,-0.5 C 202.167,-0.5 202.833,-0.5 203.5,-0.5C 215.262,19.7729 227.262,39.9396 239.5,60C 229.662,69.3381 219.662,78.5047 209.5,87.5C 217.255,96.7585 225.588,105.592 234.5,114C 206.696,161.112 179.029,208.279 151.5,255.5C 151.167,255.5 150.833,255.5 150.5,255.5C 167.5,170.167 184.5,84.8333 201.5,-0.5 Z"/></g>
<g><path style="opacity:0.999" fill="#eb1121" d="M 91.5,0.5 C 93.5273,0.337876 95.5273,0.504543 97.5,1C 104.19,4.00828 110.523,7.50828 116.5,11.5C 112.5,17.8333 112.5,24.1667 116.5,30.5C 109.325,34.8374 101.825,38.5041 94,41.5C 91.8121,41.646 90.4788,40.646 90,38.5C 86.3349,25.5509 86.8349,12.8843 91.5,0.5 Z"/></g>
<g><path style="opacity:0.999" fill="#eb1121" d="M 157.5,0.5 C 160.365,0.0548358 162.865,0.721502 165,2.5C 168.261,14.5102 168.261,26.5102 165,38.5C 164.521,40.646 163.188,41.646 161,41.5C 152.985,38.5762 145.485,34.7429 138.5,30C 140.63,27.4 141.63,24.4 141.5,21C 141.041,17.3021 140.208,13.8021 139,10.5C 145.308,7.26532 151.475,3.93199 157.5,0.5 Z"/></g>
<g><path style="opacity:0.998" fill="#eb1121" d="M 123.5,11.5 C 136.274,11.0911 139.941,16.5911 134.5,28C 125.631,32.5632 119.964,30.0632 117.5,20.5C 117.96,16.39 119.96,13.39 123.5,11.5 Z"/></g>
<g><path style="opacity:0.998" fill="#eb1121" d="M 123.5,71.5 C 131.492,69.9838 136.159,73.1505 137.5,81C 136.833,87.3353 133.333,90.5019 127,90.5C 120.142,89.4673 117.142,85.4673 118,78.5C 118.938,75.4025 120.772,73.0691 123.5,71.5 Z"/></g>
<g><path style="opacity:0.998" fill="#eb1121" d="M 124.5,118.5 C 135.101,118.38 138.934,123.38 136,133.5C 130.333,138.833 124.667,138.833 119,133.5C 116.374,126.767 118.208,121.767 124.5,118.5 Z"/></g>
<g><path style="opacity:0.998" fill="#eb1121" d="M 125.5,165.5 C 135.155,166.308 138.655,171.308 136,180.5C 130.333,187.167 124.667,187.167 119,180.5C 116.427,173.371 118.594,168.371 125.5,165.5 Z"/></g>
<g><path style="opacity:0.998" fill="#eb1121" d="M 123.5,213.5 C 131.492,211.984 136.159,215.15 137.5,223C 136.833,229.335 133.333,232.502 127,232.5C 120.142,231.467 117.142,227.467 118,220.5C 118.938,217.402 120.772,215.069 123.5,213.5 Z"/></g>
</svg>
